Format;Avi

File Size:926mb

Video: ID : 0
Format : MPEG-4 Visual
Format profile : Advanced Simple@L5
Format settings, BVOP : Yes
Format settings, QPel : No
Format settings, GMC : No warppoints
Format settings, Matrix : Default (H.263)
Codec ID : XVID
Codec ID/Hint : XviD
Duration : 1h 26mn
Bit rate : 1 095 Kbps
Width : 720 pixels
Height : 396 pixels
Display aspect ratio : 16:9
Frame rate : 23.976 fps
Color space : YUV
Chroma subsampling : 4:2:0
Bit depth : 8 bits
Scan type : Progressive
Bits/(Pixel*Frame) : 0.160
Stream size : 681 MiB (74%)
Writing library : XviD 1.2.1 (UTC 2008-12-04)

Audio: ID : 1
Format : AC-3
Format/Info : Audio Coding 3
Mode extension : CM (complete main)
Codec ID : 2000
Duration : 1h 26mn
Bit rate mode : Constant
Bit rate : 384 Kbps
Channel(s) : 6 channels
Channel positions : Front: L C R, Side: L R, LFE
Sampling rate : 48.0 KHz
Bit depth : 16 bits
Stream size : 239 MiB (26%)
Alignment : Aligned on interleaves
Interleave, duration : 32 ms (0.77 video frame)

Duration:1:26

Release Date:2010

Language:English

Plot: Welcome to the Hero Factory. A place where the most advanced and skilled Heroes in the universe are built to serve one function – saving the world from evil. Alpha team leader Stormer is the best and toughest Hero at the Hero Factory. It helps that he has Bulk and Stringer on his team, but he is driven by something deep inside of him. Years ago, when he was still just a Rookie, he was on a dangerous mission. Their leader was wounded and it was up to Stormer and his fellow Rookie, Von Ness, to save the city. But Von Ness deserted him, and Stormer was forced to go into battle alone. He succeeded that day, just like he has on every mission since then, but he still carries around the feeling that something is left unfinished. A new Rookie team has been assigned to complete their training with Stormer and his crew. Furno looks to be the best Rookie the Factory has seen since Stormer was a Rookie himself. He takes his position as a Hero in training very seriously and yearns for Stormerâ™s approval, and will push himself to do whatever it takes to get it. Heâ™s joined by fellow Rookies Breez and Surge, as they try to prove to Stormer and each other why they are ready to become true Heroes. As the six Heroes begin to work together on their missions, they start to realize that the bad guys they are fighting are working for someone. Someone from Stormerâ™s past, with an evil agenda to take down the Hero Factory and Stormer himself.
Cast:

IMDB 
 
http://www.wbshop.com/LEGO-Hero-Factory-Rise-of-the-Rookies/1000170637,default,pd.html?cgid=DVDNEW


screens
 
http://img829.imageshack.us/img829/6177/449075.jpg 
http://img222.imageshack.us/img222/2929/fsctaz.jpg 
http://img14.imageshack.us/img14/3364/wuho0j.jpg 
http://img830.imageshack.us/img830/9906/shbht1.jpg 
http://img268.imageshack.us/img268/1006/t47mmr.jpg 
http://img641.imageshack.us/img641/4391/uxdwqf.jpg
